<?xml version="1.0" encoding="UTF-8" standalone="no"?>
<!-- Created with Inkscape (http://www.inkscape.org/) -->

<svg
   width="116.40583mm"
   height="55.010227mm"
   viewBox="0 0 116.40583 55.010227"
   version="1.1"
   id="svg1"
   xml:space="preserve"
   inkscape:version="1.3.2 (091e20e, 2023-11-25, custom)"
   sodipodi:docname="logo.svg"
   xmlns:inkscape="http://www.inkscape.org/namespaces/inkscape"
   xmlns:sodipodi="http://sodipodi.sourceforge.net/DTD/sodipodi-0.dtd"
   xmlns="http://www.w3.org/2000/svg"
   xmlns:svg="http://www.w3.org/2000/svg"><sodipodi:namedview
     id="namedview1"
     pagecolor="#505050"
     bordercolor="#eeeeee"
     borderopacity="1"
     inkscape:showpageshadow="0"
     inkscape:pageopacity="0"
     inkscape:pagecheckerboard="0"
     inkscape:deskcolor="#505050"
     inkscape:document-units="mm"
     showguides="true"
     inkscape:zoom="1.0078851"
     inkscape:cx="179.08788"
     inkscape:cy="-32.741828"
     inkscape:window-width="1920"
     inkscape:window-height="991"
     inkscape:window-x="-9"
     inkscape:window-y="-9"
     inkscape:window-maximized="1"
     inkscape:current-layer="layer1" /><defs
     id="defs1" /><g
     inkscape:label="Layer 1"
     inkscape:groupmode="layer"
     id="layer1"
     transform="translate(-45.348495,-123.74596)"><path
       style="display:inline;fill:#445045;fill-opacity:1"
       d="m 147.38007,178.40723 c -4.75162,-1.69391 -4.29834,-8.07627 0.66857,-9.41372 1.15512,-0.31104 2.712,-1.56696 3.26277,-2.63204 0.38166,-0.73803 0.84177,-3.44168 0.58571,-3.44168 -0.0797,0 -0.89876,0.19373 -1.82002,0.4305 -1.22738,0.31545 -2.31139,0.39078 -4.05627,0.28186 -4.77361,-0.29797 -8.76918,-2.46786 -11.44245,-6.21411 -1.71332,-2.401 -2.48303,-4.64986 -2.64493,-7.7276 -0.28455,-5.40963 1.9813,-9.96535 6.43944,-12.94713 4.60936,-3.08293 10.3007,-3.46147 15.24364,-1.01386 2.13733,1.05834 5.33714,4.23328 6.49565,6.44517 1.50685,2.87695 1.64369,4.03243 1.64213,13.866 -7.8e-4,4.87495 -0.11319,9.63711 -0.24982,10.58258 -0.75584,5.2305 -5.46624,10.39487 -10.73215,11.76646 -1.86267,0.48517 -2.07748,0.48628 -3.39227,0.0176 z m 1.68347,-24.89189 c 0.78371,-0.40034 1.9194,-1.5833 2.3833,-2.4825 0.41671,-0.80772 0.40929,-3.21199 -0.0124,-4.0306 -0.17537,-0.3404 -0.63172,-0.95696 -1.01413,-1.37013 -2.20835,-2.38607 -6.10044,-2.0557 -7.90487,0.67098 -1.03827,1.56893 -1.041,3.90702 -0.006,5.40008 1.51674,2.18865 4.30717,2.96015 6.55445,1.81217 z m -101.537119,8.98813 c -2.937335,-1.76046 -2.894821,-6.29255 0.07481,-7.97445 3.129451,-1.77243 7.006065,0.47797 7.006065,4.06707 0,3.5422 -4.003796,5.75158 -7.080871,3.90738 z m 19.913163,0.18703 c -3.798101,-1.09138 -7.297784,-3.9411 -9.070358,-7.3858 -1.75135,-3.40344 -1.777559,-3.64226 -1.777559,-16.19741 0,-6.18463 0.09102,-11.57003 0.202261,-11.96754 0.280081,-1.00084 1.734368,-2.59159 2.76167,-3.02083 1.753557,-0.73268 3.842215,-0.36439 5.195628,0.91614 1.362518,1.28915 1.577885,2.02316 1.710242,5.82884 l 0.122789,3.53057 0.824538,-0.16927 c 1.816089,-0.37282 5.932767,-0.45771 7.402319,-0.15263 2.490157,0.51695 5.592832,2.23869 7.473187,4.14702 5.720723,5.80584 5.667095,14.9063 -0.121936,20.69225 -1.677382,1.67649 -4.457773,3.2583 -6.799119,3.86815 -2.058036,0.53605 -5.897672,0.49269 -7.923662,-0.0895 z m 6.586531,-9.78857 c 2.692468,-1.52322 3.397363,-5.17114 1.454648,-7.52799 -1.076918,-1.30649 -2.186307,-1.84433 -3.80425,-1.84433 -1.766967,0 -3.371363,0.83685 -4.30278,2.24432 -1.038182,1.56879 -1.038786,3.88243 -0.0014,5.44999 1.444936,2.18345 4.429811,2.9362 6.653806,1.67801 z m 17.738299,10.01392 c -1.138424,-0.35142 -2.715489,-2.01839 -3.036151,-3.20923 -0.173857,-0.64566 -0.24383,-6.65335 -0.196144,-16.84037 l 0.07413,-15.83665 0.710146,-1.07285 c 1.269912,-1.91851 3.82547,-2.68412 5.969398,-1.78832 1.312031,0.5482 1.902077,1.11232 2.480138,2.37115 0.454198,0.98911 0.486368,2.09563 0.491799,16.91595 0.0057,15.62475 -0.0024,15.87463 -0.55541,17.01693 -0.319949,0.66093 -0.984467,1.43942 -1.545732,1.81085 -1.105979,0.7319 -3.127272,1.023 -4.392175,0.63254 z"
       id="path2" /><path
       id="path3"
       style="fill:#9ed5cb;fill-opacity:1;stroke:none;stroke-width:1.06838"
       d="m 114.95371,134.05022 a 14.77467,14.77467 0 0 0 -14.7743,14.7748 14.77467,14.77467 0 0 0 2.87218,8.69198 l -2.35024,6.74946 7.01456,-2.60294 a 14.77467,14.77467 0 0 0 7.2378,1.9358 14.77467,14.77467 0 0 0 14.77481,-14.7743 14.77467,14.77467 0 0 0 -14.77481,-14.7748 z" /></g></svg>
